<?xml version="1.0" standalone="no"?>
<!DOCTYPE svg PUBLIC "-//W3C//DTD SVG 20010904//EN"
 "http://www.w3.org/TR/2001/REC-SVG-20010904/DTD/svg10.dtd">
<svg version="1.0" xmlns="http://www.w3.org/2000/svg"
 width="512.000000pt" height="512.000000pt" viewBox="0 0 512.000000 512.000000"
 preserveAspectRatio="xMidYMid meet">
<metadata>
Created by potrace 1.14, written by Peter Selinger 2001-2017
</metadata>
<g transform="translate(0.000000,512.000000) scale(0.100000,-0.100000)"
fill="#000000" stroke="none">
<path d="M2346 4789 c-131 -15 -216 -31 -346 -66 -134 -36 -299 -101 -410
-163 -30 -16 -66 -36 -80 -43 -144 -72 -384 -270 -536 -443 -218 -248 -410
-645 -459 -949 -2 -11 -10 -56 -17 -100 -10 -60 -13 -231 -13 -685 l0 -605 23
-67 c61 -176 204 -309 377 -352 33 -8 95 -17 138 -21 127 -9 209 -50 246 -122
7 -14 11 -112 11 -290 0 -300 5 -326 71 -376 59 -44 421 -142 634 -172 22 -3
58 -8 80 -12 234 -36 682 -40 935 -7 182 23 463 83 645 138 6 1 30 9 55 16 59
18 96 44 118 83 15 28 18 72 22 329 l5 297 30 31 c52 55 109 77 221 85 186 14
306 70 413 191 51 59 106 169 120 244 16 88 12 1128 -5 1268 -56 448 -254 852
-579 1178 -155 156 -238 222 -450 351 -112 69 -342 162 -502 204 -102 26 -148
35 -278 54 -63 10 -393 13 -469 4z m-311 -2099 c225 -87 366 -285 366 -514 0
-73 -26 -177 -61 -247 -54 -104 -180 -213 -302 -257 -31 -12 -98 -28 -150 -37
-51 -9 -104 -18 -118 -21 -102 -22 -230 -7 -327 37 -108 50 -170 103 -232 198
-85 132 -112 306 -71 466 49 192 201 341 396 389 43 11 109 14 249 12 171 -2
196 -5 250 -26z m1542 15 c205 -47 361 -204 408 -409 21 -90 15 -233 -14 -318
-23 -70 -84 -173 -129 -218 -105 -104 -247 -160 -395 -155 -117 4 -331 47
-408 83 -120 55 -221 153 -270 262 -140 313 30 668 361 754 76 20 364 20 447
1z m-890 -827 c32 -30 192 -348 196 -391 2 -17 -4 -54 -14 -81 -32 -88 -92
-132 -167 -123 -53 6 -90 31 -117 80 -11 20 -23 37 -26 37 -3 0 -13 -16 -22
-35 -43 -90 -173 -98 -253 -14 -25 27 -29 37 -28 87 1 52 10 76 98 249 60 118
107 198 122 208 61 40 159 32 211 -17z"/>
</g>
</svg>
